<svg viewBox="0 0 320 320" xmlns="http://www.w3.org/2000/svg">
    <rect width="320" height="320" rx="28" fill="#0a0e0a"/>
    <g stroke="#7FFFA8" stroke-width="0.8" stroke-opacity="0.42" stroke-linecap="round" fill="none">
        <line x1="100" y1="60" x2="100" y2="260"/>
        <line x1="100" y1="60" x2="160" y2="60"/>
        <line x1="100" y1="260" x2="160" y2="260"/>
        <path d="M 160 60 L 186 63 L 210 73 L 231 89 L 247 110 L 257 134 L 260 160 L 257 186 L 247 210 L 231 231 L 210 247 L 186 257 L 160 260"/>
        <line x1="100" y1="100" x2="186" y2="63"/>
        <line x1="100" y1="120" x2="210" y2="73"/>
        <line x1="100" y1="140" x2="247" y2="110"/>
        <line x1="100" y1="160" x2="260" y2="160"/>
        <line x1="100" y1="180" x2="247" y2="210"/>
        <line x1="100" y1="200" x2="231" y2="231"/>
        <line x1="100" y1="220" x2="210" y2="247"/>
        <line x1="100" y1="240" x2="186" y2="257"/>
    </g>
    <g fill="#7FFFA8">
        <circle cx="100" cy="60" r="5"/><circle cx="100" cy="80" r="5"/><circle cx="100" cy="100" r="5"/>
        <circle cx="100" cy="120" r="5"/><circle cx="100" cy="140" r="5"/><circle cx="100" cy="160" r="5"/>
        <circle cx="100" cy="180" r="5"/><circle cx="100" cy="200" r="5"/><circle cx="100" cy="220" r="5"/>
        <circle cx="100" cy="240" r="5"/><circle cx="100" cy="260" r="5"/>
        <circle cx="120" cy="60" r="5"/><circle cx="140" cy="60" r="5"/><circle cx="160" cy="60" r="5"/>
        <circle cx="186" cy="63" r="5"/><circle cx="210" cy="73" r="5"/><circle cx="231" cy="89" r="5"/>
        <circle cx="247" cy="110" r="5"/><circle cx="257" cy="134" r="5"/><circle cx="260" cy="160" r="5"/>
        <circle cx="257" cy="186" r="5"/><circle cx="247" cy="210" r="5"/><circle cx="231" cy="231" r="5"/>
        <circle cx="210" cy="247" r="5"/><circle cx="186" cy="257" r="5"/>
        <circle cx="140" cy="260" r="5"/><circle cx="120" cy="260" r="5"/>
    </g>
</svg>